<?xml version="1.0" encoding="utf-8"?>
<!-- Generator: Adobe Illustrator 22.0.1, SVG Export Plug-In . SVG Version: 6.00 Build 0)  -->
<svg version="1.1" id="Layer_1" xmlns="http://www.w3.org/2000/svg" xmlns:xlink="http://www.w3.org/1999/xlink" x="0px" y="0px"
	 viewBox="0 0 512 512" style="enable-background:new 0 0 512 512;" xml:space="preserve">
<style type="text/css">
	.st0{fill:#F80303;}
	.st1{fill:#FFFFFF;}
	.st2{fill:#CD9567;}
	.st3{fill:#100C0D;}
	.st4{fill:#FF6E6E;}
</style>
<path class="st0" d="M350,140c-25.7-28.5-54.9-52.5-89.6-69.4c-14.2-6.9-28.9-8.2-43.2-2.4c-11.9,4.8-22.1,13-32.3,21
	c-16.6,13.1-30.4,29.2-46.7,42.6c-11.9,9.8-22.9,20.9-35.2,30.4c-5.5,4.3-11,8.7-16.5,12.9c-1.2,0.9-2.8,1.7-2.5,3.4
	c0.5,2.3,2.7,1.6,4.2,1.7c4.1,0.3,8.3,0.5,12.3-0.6c7.4-2.2,14.8-4.6,21.9-7.5c2.9-10.3,9.1-18.1,19.9-22.6
	c4.3-1.8,8.4-3.9,12.4-6.4c5.4-3.4,10.3-7.3,13.5-12.9c2.7,3.1,4.8,6.4,6.3,9.8c1.9-1.9,3.7-4,5.3-6.2c5.5-7.5,10.2-15.5,15.9-22.8
	c0.6-0.8,0.4-3,2.6-1.8c2.1,1.1,0.9,2.6,0.2,3.7c-2.4,4.3-5,8.5-7.6,12.7c-1.8,2.9-3.5,5.8-4.2,9.2c0.7,0.1,1.2,0.3,1.4,0.1
	c0.7-0.5,1.4-1.2,2-1.8c11.2-11.6,23.5-21.8,37.2-30.4c2.3-1.4,4.2-2.5,7.1-1.7c-1.1,2.4-3,3.3-4.6,4.5
	c-8.9,6.3-18.6,11.4-26.7,18.9c-0.4,0.4-0.8,0.8-1.2,1.2c-5.7,5.5-15.1,15.9-21.1,22c0,0-0.1,0.1-0.1,0.1c-0.1,0.1-0.2,0.2-0.3,0.3
	c-0.3,0.4-0.7,0.7-1,1c-0.2,0.2-0.4,0.4-0.6,0.5c0,0-0.1,0.1-0.1,0.1c0,0-0.1,0.1-0.1,0.1c0,0,0,0,0,0c-0.2,0.2-0.4,0.3-0.5,0.5
	c-0.4,0.3-0.7,0.6-1.1,0.9c0.2,5.9-1.5,11.8-5.1,17c-1.6,2.4-1.5,4.2-0.5,6.5c3,6.6,8,11.2,13.7,15.2c2.7-1.4,5.5-2.6,8.4-3.6
	c1.6-0.6,4.4-1.1,4.6,0c0.7,5.1,2.9,2.3,4.9,1.3c2.5-1.3,5-2.5,7.4-3.8c18.6-9.9,38.2-17.6,58.4-23.6c7.8-2.3,15.8-4.4,24-4.7
	c1.7-0.1,4.4-0.9,4.7,1.7c0.4,3.6,2.6,2.7,4.4,2.1c15.7-5.5,32-6.6,48.5-6.4c4.1,0.1,4,0,6.7,3.6c0.3,0.4,1.4,0.4,2,0.3
	c1.6-0.5,3.1-1.1,5.1-1.9C358.3,150.4,354.4,144.9,350,140z"/>
<path class="st0" d="M202.4,180c1.2-6-16.4,4.7-16.4,4.7c-7.1-5.1-9.1-13.4-9.1-13.4c6.4-11.8,4.2-17.7,4.2-17.7
	c12,17.7,23.3,13.6,23.3,13.6L202.4,180z"/>
<path class="st0" d="M307.2,139.1c-7.8,1.3-5.5-6.4-5.5-6.4s-45.3-40-68-40c-9.4,0-18.5,1.6-27.1,4l-6.5,2
	c-24.3,8.3-42.2,22.1-42.2,22.1s48-50.2,73.8-50.8c25.8-0.6,78.1,35.8,104.7,66.7C336.5,136.8,315,137.8,307.2,139.1z"/>
<path class="st1" d="M411.9,196.6c0-2.4-0.1-4.9-0.3-7.3c-0.3-4.9-0.9-9.8-1.8-14.7c-0.3-1.5-0.7-2.9-1.3-4.1
	c-1.3-2.6-3.4-4.5-6.2-5.6c-1.2-0.5-2.4-0.8-3.8-1c-4.6-0.5-9.2-0.9-13.7-1.1c-10-0.4-20-0.1-30,0.9c-6.6,0.6-13.1,1.7-20.2,2.6
	c0.4-1.3,1.2-2.3,2-3.1c0.5-0.6,1.1-1.1,1.7-1.6c0.5-0.5,1-1,1.5-1.6c0.3-0.4,0.5-0.7,0.8-1.2c-1.6,0-2.9-0.1-4.2-0.1
	c0,0-0.1,0-0.1,0c-0.4,0-0.8,0-1.1,0.1c-1.9,0.2-3.9,0.5-5.8,0.8c-0.7,0.1-1.5,0.2-2.2,0.3c-14.6,2.1-29,5.2-42.8,10.6
	c-0.8,0.3-1.7,0.6-2.5,1c-1.2,0.5-2.6,1.4-3.8,1.8c-1.1,0.4-2.1,0.4-2.8-0.5c-0.4-0.5-0.5-0.9-0.5-1.4c-0.1-1.8,2.6-3.2,3.7-4.9l0,0
	c0.1-0.2,0-0.6-0.1-1.5c-4.4,1-8.8,2.2-13.1,3.6c-4.3,1.3-8.6,2.8-12.8,4.4c-6.3,2.4-12.5,5-18.6,7.8c-6.1,2.8-12.1,5.8-18,9
	c-4.8,2.5-9.5,5.2-14.2,7.9c0,0,0,0,0,0c-1.2,0.7-2.3,1.3-3.5,2c-3.9,2.3-7.8,4.6-11.7,6.9c-1.9,1.2-3.9,2.3-5.8,3.5v0l0,0
	c0.2-1.5,0.5-2.9,0.9-4.2c0.7-2.3,1.6-4.4,2.4-6.6c0.3-0.7,0.6-1.5,0.8-2.2c-1.2,0.7-2.4,1.4-3.6,2.1c0,0,0,0,0,0
	c-1.9,1.1-3.7,2.2-5.5,3.3c0,0,0,0,0,0c-2,1.2-4,2.4-5.9,3.7c-2,1.2-3.9,2.5-5.9,3.8c-0.5,0.3-1,0.7-1.6,1c-4.9,3.2-9.7,6.6-14.4,10
	c-1.6,1.2-3.2,2.4-4.8,3.7c-0.9,0.7-1.8,1.3-2.6,2l0,0c-2.1,1.7-4.2,3.4-6.3,5.1c-2.2,1.9-4.4,3.8-6.6,5.8c-3.1,2.8-5.1,6.2-6.2,9.9
	c-0.3,0.9-0.5,1.9-0.6,2.8c-0.1,0.7-0.2,1.5-0.3,2.2c-0.2,2.2-0.1,4.5,0.2,6.8c1,8,3.3,15.7,6.8,22.9c0.6,1.2,1.2,2.4,1.8,3.6
	c0.6,1.2,1.3,2.3,2,3.5c0.5,0.8,1,1.6,1.4,2.3c0.5,0.7,0.9,1.3,1.3,1.9c0.8,1.1,1.7,1.9,2.5,2.5c1.1,0.8,2.2,1.1,3.6,0.9
	c0.7-0.1,1.4-0.2,2.1-0.5c0.8-0.3,1.6-0.7,2.5-1.1c0.9-0.5,1.9-1,3-1.7c11-6.6,22-13,33.2-19.2c5.6-3.1,11.2-6.1,16.9-9.1
	c5.7-3,11.3-5.9,17-8.8c14.8-7.5,30.1-13.9,45.6-19.7c7.7-2.9,15.6-5.5,23.4-8.1c7.9-2.5,15.8-4.9,23.8-7.2c3.4-1,6.8-1.9,10.2-2.6
	c2.8-0.6,5.6-1.1,8.5-1.4c1.1-0.1,2.5-0.3,3.4,0.1c0.5,0.2,0.8,0.6,0.9,1.2c0,0.3,0,0.5,0,0.7c0,0.2-0.1,0.4-0.2,0.6
	c-0.1,0.2-0.4,0.4-0.6,0.6c-0.4,0.3-1,0.5-1.6,0.7c-0.5,0.1-1,0.3-1.5,0.4c-0.7,0.2-1.4,0.4-2.1,0.5c-0.7,0.1-1.4,0.3-2.1,0.4
	c-4.8,0.7-9.6,0.6-14.5,1.9c-8.6,2.4-17,5-25.4,7.8c-8.4,2.8-16.8,5.7-25.2,8.6c-9.4,3.2-18.6,7.1-27.5,11.5
	c-0.8,0.4-1.6,0.8-2.4,1.2c1,1.6,1.7,1,2.6,0.7c7.8-2.2,15.7-4.5,23.5-6.5c22.1-5.7,44.5-10.4,67.4-11.9c26.6-1.8,53.2-1.5,79.7,2.4
	c0.7,0.1,1.4,0.2,2,0.2c0.1,0,0.1,0,0.2,0c1.2,0,2.1-0.2,2.9-0.7c0.4-0.2,0.8-0.5,1.1-0.9c0.8-0.9,1.3-2.1,1.7-3.8
	c0.3-1.2,0.5-2.4,0.7-3.6c0.5-2.4,0.9-4.9,1.2-7.3c0.4-2.4,0.7-4.9,0.9-7.3c0.4-3.7,0.7-7.3,0.8-11
	C411.9,201.5,411.9,199,411.9,196.6z"/>
<path class="st1" d="M98.2,188.2c-4.1,0.2-8.1,0.1-12.1-0.5c-4.8-0.7-10.5-1.8-11.9-7c-0.3-0.9-0.3-1.8-0.1-2.6
	c0.2-0.8,0.5-1.5,0.9-2.2c0.4-0.7,1-1.3,1.6-1.9c0.4-0.4,0.9-0.8,1.3-1.1c0.5-0.4,0.9-0.7,1.4-1.1c0.5-0.4,0.9-0.7,1.3-1.1
	c0.2-0.2,0.4-0.4,0.6-0.6c0.8-0.8,1.8-1.3,2.7-2c7-5.3,14-10.7,20.9-16c1-0.8,2.6-1.3,2.4-2.6c0-0.4-0.3-1-0.8-1.6
	c-4.9-6.3-10.8-11.4-17.9-15c-0.7-0.3-1.2-0.4-1.6-0.3c-0.3,0.2-0.4,0.5-0.2,1.1c0.1,0.4,0.2,0.7,0.2,0.9c0.1,0.5,0,0.8-0.2,1
	c-0.4,0.5-1.4,0.3-2.3,0.2c-2.2-0.2-4.3-0.3-6.4-0.2c-1.4,0.1-2.8,0.2-4.2,0.3c-1.4,0.2-2.7,0.4-4.1,0.7c-0.7,0.1-1.4,0.3-2,0.5
	c-2,0.5-4,1.1-6,1.7c-3.3,1.1-6.6,2.4-9.8,3.7c-5.4,2.3-10.5,5-14.9,9.1c-0.6,0.6-1.2,1.2-1.8,1.8h0c2.5,1.1,4.8-1.3,7.4,0.4
	c0,0,0,0,0,0c-3.4,5.4-6,11-7.7,16.8c-0.6,1.9-1,3.9-1.4,5.8c-0.3,1.9-0.6,3.8-0.7,5.7c0,0.1,0,0.3,0,0.4c-0.1,2-0.2,4-0.1,6
	c0.1,4.1,0.7,8.4,1.8,12.7c0.2-0.4,0.4-0.7,0.6-1.1c0.3-0.7,0.7-1.3,1-1.9c0.5-0.9,1-1.8,1.8-2.5c0,0,0,0,0,0c0.5-0.5,1.2-0.9,2-1.2
	c1.5,3.9,3.3,7.6,5.4,11c1.3,2,2.7,4,4.2,5.9c1.7,2.1,3.6,4.1,5.7,6c1.4,1.2,2.8,2.4,4.3,3.6c0.8,0.6,1.5,1.1,2.4,1.6
	c2,1.3,4.2,2.6,6.4,3.7c0.5,0.2,0.9,0.5,1.4,0.7v0c0,0,0-0.1-0.1-0.1c-0.2-0.5-0.4-0.9-0.5-1.3c-0.2-0.5-0.3-1-0.3-1.4
	c-0.1-0.7,0.1-1.1,0.4-1.4c0,0,0,0,0,0c0.2-0.2,0.4-0.3,0.6-0.4c0.1,0,0.3-0.1,0.5-0.1c0.4-0.1,0.9-0.1,1.4-0.1c0.4,0,0.7,0,1.1,0
	c0.7,0,1.4,0.1,2.1,0.1c2.8,0.1,5.5,0.1,8.3,0c0.8,0,1.7-0.1,2.5-0.2c0.2,0,0.5,0,0.7-0.1c0.6-0.1,1.2-0.1,1.9-0.2
	c0.2,0,0.5-0.1,0.7-0.1c0.8-0.1,1.7-0.3,2.5-0.4c0.8-0.2,1.6-0.3,2.4-0.5c0.2,0,0.3-0.1,0.5-0.1c0.8-0.2,1.6-0.4,2.4-0.7
	c0.1,0,0.3-0.1,0.4-0.1c0.7-0.2,1.4-0.5,2.1-0.8c0.1-0.1,0.3-0.1,0.4-0.1c0.8-0.3,1.5-0.6,2.3-1c0.2-0.1,0.3-0.2,0.5-0.2
	c0.8-0.4,1.5-0.8,2.3-1.2c0,0,0,0,0,0l0,0c-0.5-0.6-1.3-1-2-1.3c-0.8-0.3-1.6-0.6-2.2-1.1c-0.4-0.4-0.8-0.8-1.1-1.5
	c1.8-1.2,3.5-2.5,5.1-3.8c0.8-0.7,1.6-1.3,2.4-2c0.5-0.5,1.1-1,1.6-1.5c0.8-0.8,1.6-1.6,2.4-2.4c0.7-0.8,1.4-1.7,2.1-2.6
	c0.2-0.3,0.5-0.6,0.7-1c0.7-0.9,1.3-1.9,1.8-3c0.4-0.7,0.7-1.4,1-2.1c0.1-0.2,0.2-0.4,0.2-0.6c0.6-1.5,1.1-3,1.5-4.7
	c0-0.2,0.1-0.4,0.1-0.6c0.2-0.8,0.3-1.7,0.5-2.6v0c-2.8,0.4-5.6,0.8-8.4,1.2C106.3,187.5,102.2,188,98.2,188.2z"/>
<path class="st2" d="M407.9,159.3c0.3,0.5,0.6,1.1,1,1.6c0,0,0,0,0.1,0c0.1,0.1,0.3,0.2,0.4,0.3c0.1,0.1,0.3,0.2,0.4,0.3
	c0.1,0.1,0.2,0.1,0.3,0.2c0.3,0.2,0.5,0.4,0.8,0.6c0.1,0.1,0.1,0.1,0.2,0.2c0.3,0.2,0.5,0.5,0.7,0.8c0,0,0.1,0.1,0.1,0.1
	c0.5,0.6,1,1.2,1.4,1.8c0.3,0.4,0.6,0.9,0.8,1.4c0.1,0.2,0.2,0.5,0.4,0.8c0.1,0.2,0.2,0.4,0.3,0.6c0.1,0.3,0.3,0.7,0.4,1
	c0,0,0,0.1,0.1,0.1c0.5,0.7,0.8,1.4,0.7,2.1c0.1,0.3,0.1,0.6,0.2,0.8c0.1,0.3,0.2,0.6,0.2,0.9c0.2,0.7,0.3,1.5,0.5,2.2
	c0.3,1.7,0.6,3.5,0.8,5.2c0.1,0.6,0.2,1.3,0.3,1.9c0.1,1.1,0.3,2.1,0.4,3.2c0.1,0.8,0.2,1.6,0.2,2.4c0.1,1,0.2,2.1,0.2,3.1
	c0,0.5,0.1,1,0.1,1.5c0.1,2.1,0.2,4.2,0.2,6.4c0,2,0,4.1-0.1,6.1c0,0.1,0,0.1,0,0.2c0,0.5,0,1-0.1,1.6c-0.2,3.6-0.5,7.3-0.9,10.9
	c0.9-0.7,1.7-1.4,2.5-2.1c0.2-0.2,0.5-0.4,0.7-0.6c0.8-0.7,1.6-1.5,2.4-2.2c8.3-7.9,15.3-16.6,19.3-27.4c5-13.7,2.3-29.8-7.3-38
	c-5.7-4.9-11.1-10-15.9-15.7c-1.4-1.7-2.8-3.4-4.2-5.3c-1.3-1.8-2.6-3.7-3.8-5.6l0,0c-3,2.5-5.3,5.3-6.9,8.3c-0.5,1-1,2-1.3,3.1
	c-1.5,4.3-1.7,8.9-0.8,13.9C403.7,151,405.5,155.3,407.9,159.3z"/>
<path class="st2" d="M416.5,295.4c-3.6-17.1-8-33.9-14.3-50.1c0,0-0.1,0-0.1,0c-4-0.6-8.1-1.2-12.1-1.6c-8.8-1.1-17.6-1.8-26.5-2.3
	c-0.5,0-1.1-0.1-1.6-0.1c-2.7-0.1-5.5-0.3-8.2-0.3c0,0-0.1,0-0.1,0c0,0-0.1,0-0.1,0c-2.9-0.1-5.7-0.1-8.6-0.1c-0.6,0-1.2,0-1.9,0
	c-0.5,0-1,0-1.5,0c-1.8,0-3.7,0-5.5,0.1c-0.4,0-0.9,0-1.3,0c-0.9,0-1.8,0.1-2.7,0.1c-1.8,0.1-3.7,0.1-5.5,0.2
	c-1.2,0.1-2.4,0.1-3.6,0.2c-1.8,0.1-3.6,0.3-5.4,0.4c-0.4,0-0.8,0.1-1.2,0.1c-0.1,0-0.2,0-0.3,0c-0.7,0.1-1.3,0.1-2,0.2
	c-0.1,0-0.1,0-0.2,0c-1.8,0.2-3.6,0.4-5.3,0.6c-0.9,0.1-1.8,0.2-2.7,0.3c-0.3,0-0.7,0.1-1,0.1c-1.7,0.2-3.4,0.5-5.2,0.7
	c-1.2,0.2-2.4,0.3-3.6,0.5c-2.8,0.4-5.6,0.9-8.4,1.4c0,0,0,0,0,0c-3.1,0.6-6.1,1.1-9.2,1.8c0,0,0,0,0,0c-2.7,0.6-5.5,1.2-8.2,1.8
	c-0.8,0.2-1.6,0.4-2.5,0.6c-2,0.5-4,1-6,1.5c-0.8,0.2-1.6,0.4-2.4,0.6c-2.7,0.7-5.4,1.5-8.1,2.3c0,0,0,0,0,0c0,0,0,0-0.1,0
	c-2.3,0.7-4.5,1.4-6.8,2.1c-1.7,0.5-3.4,1.1-5.1,1.7c-3.4,1.1-6.7,2.3-10,3.5c-0.1,0-0.2,0.1-0.3,0.1c-3.3,1.2-6.6,2.5-10,3.7
	c-1.6,0.6-3.1,1.2-4.7,1.9c-0.3,0.1-0.5,0.2-0.8,0.3c-2.2,0.9-4.4,1.8-6.6,2.8c0,0-0.1,0-0.1,0c-3.1,1.3-6.1,2.6-9.1,3.9
	c-2,0.9-4,1.7-6,2.6c-7.1,3.1-14.2,6.3-21.1,9.8c-3.1,1.6-6.3,3.2-9.3,4.9c-1.9,1-3.7,2.1-5.6,3.2c-1.4,0.8-2.7,1.6-4.1,2.5
	c-1.3,7.2-2.4,14.5-3.1,21.8c-1.3,14.6-1.6,29.1,1,43.6c2.5,13.8,7.5,26.5,16.8,37.2c11.4,13.2,26.2,21.1,42.8,25.6
	c15,4.1,30,7.9,44,15c8.8,4.4,18.2,6.7,28,7.2c12.6,0.6,24.5-2.2,35.8-7.7c10-4.8,20.2-8.9,31-11.3c11.7-2.6,22.9-6.1,33.4-11.9
	c18.2-10,30.4-24.8,35.8-44.9c3.8-14.1,4.8-28.4,3.8-43C419.9,317.6,418.9,306.4,416.5,295.4z"/>
<path class="st2" d="M362.1,294.1c11.4,0.1,19.9,8.7,19.8,20.2c-0.1,11-9,19.9-20,19.9c-11.4,0-20.2-9-20.1-20.5
	C342,302.6,350.8,294.1,362.1,294.1z"/>
<path class="st2" d="M170.7,349.9c1.7-0.7,3.3-1.1,5-1.4c0.6-0.1,1.1-0.1,1.7-0.2c9.7-0.7,19.3,5.1,25.6,12.3
	c4.4,5.1,7.5,10.9,8.4,17.7c1.7,12.3-3.9,19.4-12.9,22.2c-18.9-0.1-32.5-10.6-36.6-28.3C159.6,362.6,162.5,355.3,170.7,349.9"/>
<path class="st2" d="M206.1,334.2c-11.1,0-19.9-9.1-19.8-20.4c0.1-11.3,8.8-19.7,20.4-19.7c11.1,0,19.7,8.9,19.7,20.1
	C226.3,325.4,217.4,334.2,206.1,334.2z"/>
<path class="st2" d="M338.8,385.4c-9,8.3-15.1,18-18.7,29.7c-4.7,15.4-17.1,25.5-36.1,24.7c-18.9,0.8-31.6-9.6-36.5-26.7
	c-3-10.4-8.6-19-16.4-26.2c-2.6-2.4-5-5.1-6.9-8.1c-4.4-7.1-4.6-14.6-1.9-22.3c1.1-3.3,1.4-6.4,0.4-9.7c-6-20.4,12-34.8,26.5-36.3
	c7.1-0.7,13.7,0.6,20.1,3.5c10,4.5,19.8,4.6,29.9,0c12.2-5.5,24.1-5.4,35.4,2.5c10.3,7.2,14.4,17.9,11.3,30.2
	c-0.8,3.2-1,6.1,0.2,9.3C349.9,367.4,347.5,377.3,338.8,385.4z"/>
<path class="st2" d="M406.1,373.7c-3.7,13.3-12.4,22.1-25.7,26.3c-3.5,1.1-7.1,0.4-10.6,0.6c0,0,0,0,0,0c-1.5-0.5-2.9-1.1-4.1-1.8
	c-1.3-0.7-2.4-1.5-3.4-2.4c-0.7-0.6-1.3-1.2-1.9-1.9c-0.6-0.7-1.1-1.4-1.5-2.2c-0.4-0.8-0.8-1.6-1.1-2.5c-0.6-1.7-1-3.7-1.1-5.8
	c-0.3-5.3,0.9-10.3,3.3-15.1c4.3-8.3,10.4-14.6,19-18.3c6.1-2.7,12.3-3,18.6-0.7C407.1,355.2,408.5,365,406.1,373.7z"/>
<path class="st2" d="M486,237.6c-0.3-1.8-1-3.4-2.1-4.7c-6.5-1.4-12.9-3.4-19.1-5.7c-2.1-0.8-4.2-1.5-6.2-2.3
	c-2.8-1.1-5.5-2.2-8.3-3.3c-4.2-1.7-8.6-2.2-13.2-1.8c-4.8,0.4-9.2,1.8-13.4,3.6c-2.4,1.1-4.7,2.3-7,3.6c-0.3,1.7-0.6,3.4-1,5.1
	c-0.1,0.3-0.1,0.7-0.2,1c-0.4,1.7-0.8,3.4-1.2,5.1c0,0,0,0,0,0c-0.2,0.6-0.3,1.2-0.5,1.7c0,0.1-0.1,0.2-0.1,0.3
	c0,0.1-0.1,0.2-0.2,0.4c-0.1,0.2-0.2,0.4-0.3,0.6c0,0.1-0.1,0.2-0.1,0.3c0,0,0,0,0,0c-0.1,0.2-0.2,0.3-0.2,0.5
	c0,0.1-0.1,0.2-0.2,0.3c-0.2,0.3-0.4,0.6-0.6,0.9c0,0,0,0,0,0v0c0,0,0,0,0,0c-0.2,0.3-0.4,0.5-0.7,0.7c-0.2,0.1-0.3,0.3-0.5,0.4
	c-0.1,0.1-0.3,0.2-0.4,0.3c-0.2,0.1-0.4,0.2-0.6,0.3c0,0,0,0,0,0c0,0,0,0,0,0c-0.2,0.1-0.5,0.2-0.7,0.3c0,0,0,0,0,0c0,0,0,0,0,0
	c-0.1,0-0.2,0.1-0.4,0.1c0,0,0,0,0,0c-0.1,0-0.2,0-0.2,0.1c0,0,0,0,0,0c0,0,0,0,0,0c1,2.5,2,5,3,7.5c0,0,0,0,0,0c0,0,0,0,0,0l0,0
	c3.5-1.7,7-3.3,10.6-4.6c3.6-1.3,7.3-2.3,11.2-2.8c10.1-1.3,19.1,0.7,26.9,7.4c-6.7,6-14.5,9.2-23.4,10c-8.4,0.8-16.2-1.5-23.7-5
	c0.4,1.3,0.7,2.6,1.1,3.9c0.4,1.3,0.8,2.6,1.2,3.9c0.3,1,0.7,2,1.7,2.7c10,6.7,20.7,9.5,32.6,6.5c6.8-1.7,12.4-5.8,17.8-10
	c6.4-4.9,12.4-10.3,16.4-17.5c1.1-2,1.8-4,2-6c0.1-0.7,0.1-1.3,0.1-1.9C486.1,238.8,486.1,238.2,486,237.6z"/>
<path class="st2" d="M400.5,411.3C400.5,411.3,400.5,411.3,400.5,411.3C400.5,411.3,400.5,411.3,400.5,411.3
	c0.1-0.2,0.1-0.3,0.2-0.5c-0.2,0.1-0.3,0.1-0.5,0.2C400.3,411.2,400.4,411.2,400.5,411.3z"/>
<path class="st2" d="M175.2,202.3C175.2,202.3,175.2,202.3,175.2,202.3c-2,1.2-4,2.4-5.9,3.7C171.2,204.8,173.2,203.5,175.2,202.3z"
	/>
<path class="st2" d="M184.3,196.9L184.3,196.9c-1.2,0.7-2.4,1.4-3.6,2.1c0,0,0,0,0,0C181.9,198.3,183.1,197.6,184.3,196.9z"/>
<path class="st2" d="M156.7,207.1c4.1-2.7,8.2-5.4,12.3-8c-3.2-2.1-6-4.8-7.9-8.6c-0.8-1.6-1.5-3.3,0.3-4.4c1.7-1,3.4,0,4.3,1.8
	c1.8,3.8,4.8,6.3,8.2,8.1c2-1.2,4-2.5,6.1-3.6c-5.6-4.2-10.3-9.2-13.4-16c-0.6-1.4-1.2-0.7-1.8-0.1c-1.9,1.7-4,3.3-6.1,4.7
	c-0.7,0.5-1.3,1-2,1.4c-1.6,1-3.3,1.6-4.5-0.4c-0.2-0.4-0.4-0.8-0.4-1.2v0c-0.1-0.9,0.4-1.6,1.2-2.1h0c0.3-0.2,0.6-0.4,0.9-0.6
	c4.2-2.5,7.9-5.6,11-9.3c0.5-0.5,0.9-1.1,1.3-1.7c2.1-2.7,3.6-5.6,4.5-8.5c1.4-4.6,1.4-9.4-0.4-14.5c-0.3-0.8-0.6-1.7-1-2.5
	c-0.3-0.7-0.1-2.3-1.8-1.9c-7.2,6.7-15.6,11.4-24.6,15.1c-2.2,0.9-4.2,2.1-6,3.7c-3.8,3.3-6.5,7.1-8.3,11.1
	c-2.7,6.1-3.3,12.9-2.2,20.2c0.1,0.8,0.3,1.5,0.4,2.3c0,0,0,0,0,0c1.7,8.5,5.1,16.1,9.5,23.2c0,0,0,0,0,0c1,1.6,2,3.1,3.1,4.7
	l10.8-8.7C152.4,209.9,154.6,208.5,156.7,207.1z"/>
<path class="st3" d="M489,229c-0.8-1.1-1.5-2-3.1-2.2c-8.3-1-16.2-3.8-23.8-7c-10-4.1-19.8-8.1-31-5.1c0.3-1.6,1.3-2.1,2-2.9
	c6.7-7.3,12.3-15.4,15.6-24.8c6.3-18,1-37.4-12.7-47.2c-3.7-2.6-6.7-6-9.8-9.4c-5.2-5.8-9.7-12.1-11.6-20.1
	c-3.4,2.5-6.2,4.8-8.7,7.6c-8.5,9.2-11.7,19.9-8.1,31.9c0.7,2.5-0.2,5.3-1.1,7.3c-5.8-0.8-11.8-1.4-17.7-1.7
	c-3.1-0.1-5.1-1.3-7.1-3.5c-1.7-1.9-3.4-3.8-5.1-5.6c-0.3-0.4-0.7-0.7-1-1.1c-5.5-6-11.1-12-16.8-17.7c0,0-0.1-0.1-0.1-0.1
	c-2-2-4-4-6-5.9c-6.1-5.9-12.3-11.5-18.8-17c-2.5-2.1-5-4.2-7.5-6.2c-0.6-0.5-1.3-1-1.9-1.5c-2.6-2.1-5.2-4.1-7.8-6.1
	c-2-1.5-3.9-2.9-5.9-4.4c-2-1.4-4-2.8-6-4.2c-4-2.8-8.2-5.4-12.4-7.9c-2.1-1.3-4.2-2.5-6.4-3.7c-2.9-1.6-5.8-3.1-8.7-4.6
	c-2.9-1.5-5.9-2.9-9-4.2c-0.7-0.3-1.5-0.6-2.2-0.9c-0.4-0.2-0.8-0.3-1.2-0.5c-0.3-0.1-0.7-0.2-1-0.4c-0.9-0.3-1.7-0.6-2.6-0.8
	c-0.2-0.1-0.4-0.1-0.6-0.2c-0.2,0-0.3-0.1-0.5-0.1c-0.4-0.1-0.8-0.2-1.2-0.3c-0.7-0.2-1.5-0.4-2.2-0.5c-1.3-0.3-2.6-0.5-3.9-0.6
	c-0.9-0.1-1.7-0.2-2.6-0.2c-2.9-0.2-5.8-0.1-8.7,0.2c-0.3,0-0.5,0.1-0.8,0.1c-0.6,0.1-1.3,0.2-1.9,0.3c0,0-0.1,0-0.1,0
	c-0.2,0-0.3,0.1-0.5,0.1c-0.3,0.1-0.7,0.1-1,0.2c-0.4,0.1-0.8,0.2-1.2,0.3c-0.4,0.1-0.7,0.2-1.1,0.3c-0.4,0.1-0.8,0.2-1.2,0.3
	c0,0-0.1,0-0.1,0c-0.7,0.2-1.5,0.4-2.2,0.7c-0.4,0.1-0.7,0.2-1.1,0.3c-1.1,0.4-2.2,0.8-3.4,1.3c-1.9,0.8-3.9,1.7-5.7,2.6
	c-3.8,1.8-7.4,3.8-11,6c-5.3,3.3-10.4,6.9-15.2,10.8c-3.2,2.6-6.4,5.4-9.4,8.2c-19.2,18.1-38.5,36.2-58.2,53.8
	c-0.7,0.6-1.4,1.1-1.9,1.5c-0.6,0.3-1.1,0.5-1.7,0.5c-0.3,0-0.6,0-0.8-0.1c-0.2-0.1-0.3-0.1-0.5-0.2c-0.4-0.2-0.8-0.5-1.3-0.9
	c-0.1-0.1-0.1-0.1-0.2-0.2c-0.1-0.1-0.2-0.2-0.3-0.3c-0.2-0.2-0.4-0.4-0.6-0.6c0,0,0,0,0,0c-1.1-1.2-2.2-2.3-3.3-3.3c0,0,0,0,0,0
	c-0.2-0.1-0.3-0.3-0.5-0.4c-2.1-1.9-4.4-3.7-6.7-5.3c-0.6-0.4-1.3-0.8-1.9-1.2c-1.3-0.8-2.6-1.5-4-2.2c-0.7-0.3-1.4-0.7-2.1-1
	c-1.4-0.6-2.8-1.2-4.3-1.8c-2.9-1.1-5.9-1.9-9-2.6c-0.4-0.1-0.7-0.2-1.1-0.3c-0.3-0.1-0.6-0.2-0.9-0.3c-0.1,0-0.1,0-0.2,0
	c0,0,0,0-0.1,0c-0.3-0.1-0.5-0.1-0.8-0.1c0,0-0.1,0-0.1,0c0,0-0.1,0-0.1,0c0,0,0,0,0,0c-0.1,0-0.2,0-0.3,0c-0.2,0-0.4,0-0.6,0
	c-0.2,0-0.4,0.1-0.5,0.2c-0.2,0.1-0.4,0.3-0.6,0.5c-0.2,0.2-0.4,0.5-0.5,0.8c-0.1,0.3-0.2,0.5-0.2,0.8c0,0.7,0.5,1.2,1.1,1.7
	c0.8,0.6,2,1.2,2.5,2v0c0,0,0,0.1,0,0.1c0.1,0.2,0,0.6,0.1,0.8c0,0,0,0,0,0c-0.5,0-1,0.1-1.4,0.2c-0.8,0.1-1.6,0.2-2.4,0.3
	c-0.2,0-0.4,0.1-0.5,0.1c-1.2,0.2-2.4,0.4-3.6,0.7c-0.1,0-0.3,0.1-0.4,0.1c-0.1,0-0.2,0-0.3,0.1c-1.2,0.3-2.4,0.5-3.6,0.9
	c-0.1,0-0.3,0.1-0.4,0.1c0,0-0.1,0-0.1,0c-1.2,0.3-2.5,0.7-3.7,1.1c0,0,0,0,0,0c-1.1,0.3-2.1,0.7-3.2,1.1c-0.2,0.1-0.4,0.2-0.6,0.2
	c-1.1,0.4-2.1,0.8-3.1,1.2c0,0,0,0,0,0c0,0,0,0,0,0c-1.1,0.5-2.3,1-3.4,1.5c0,0-0.1,0-0.1,0.1c-1.1,0.5-2.2,1.1-3.3,1.6
	c-0.1,0-0.1,0.1-0.2,0.1c-1.9,1-3.7,2.1-5.4,3.2c-0.2,0.1-0.4,0.3-0.6,0.4c0,0,0,0,0,0c-1.7,1.1-3.2,2.2-4.7,3.4c0,0,0,0,0,0
	c0,0,0,0,0,0c-0.2,0.1-0.3,0.3-0.5,0.4c-0.7,0.6-1.4,1.2-2,1.7c0,0,0,0,0,0c-0.1,0.1-0.1,0.1-0.2,0.2c0,0,0,0,0,0
	c-0.6,0.5-1.1,1.1-1.7,1.6c0,0-0.1,0.1-0.1,0.1c-0.3,0.4-0.7,0.7-1,1.1c0,0-0.1,0.1-0.1,0.1c-0.3,0.3-0.6,0.7-0.9,1.1
	c-0.1,0.1-0.1,0.2-0.2,0.3c-1,1.3-1.8,2.5-2.5,3.8c-0.1,0.1-0.1,0.3-0.2,0.4c-0.3,0.6-0.6,1.2-0.8,1.9c0,0,0,0,0,0.1
	c-0.2,0.6-0.4,1.2-0.5,1.8c0,0,0,0,0,0c0,0.1,0,0.2,0,0.2c0,0.1,0,0.2,0,0.2c0,0.3-0.1,0.5-0.1,0.8c0,0.3-0.1,0.6-0.1,1c0,0,0,0,0,0
	c0,0,0,0,0,0c0,0,0,0,0,0c1.4-0.1,2.7-0.8,4-1.4c0.4-0.2,0.9-0.4,1.3-0.6c0.3-0.1,0.7-0.2,1-0.3c0.3-0.1,0.7-0.1,1.1-0.1
	c0.2,0,0.4,0,0.6,0c0.2,0,0.4,0,0.6,0c-0.2,0.6-0.5,1.2-0.7,1.7c-0.3,0.8-0.6,1.5-0.9,2.3c-0.1,0.3-0.2,0.5-0.3,0.8c0,0,0,0,0,0
	c-1.3,3.6-2.3,7.2-3,10.8c0,0,0,0,0,0.1c0,0,0,0,0-0.1c-0.1,0.5-0.2,0.9-0.2,1.4c0-0.1,0-0.2,0-0.3c0,0.1,0,0.2,0,0.3
	c-0.1,0.3-0.1,0.7-0.2,1c0,0,0,0,0,0.1c0,0,0,0,0,0c0,0.2-0.1,0.4-0.1,0.7c0,0,0,0,0,0c0,0,0,0,0,0c0,0.1,0,0.1,0,0.2
	c0,0,0,0.1,0,0.1c-0.1,0.8-0.2,1.6-0.3,2.5c0,0,0,0,0,0c0,0.2,0,0.3,0,0.5c0,0,0,0,0,0c0,0.2,0,0.4,0,0.7c0,0.5,0,0.9-0.1,1.4
	c-0.1,3.4,0,6.8,0.5,10.2c0.1,0.5,0.2,1.1,0.3,1.6c0.1,0.3,0.1,0.7,0.2,1c0,0.1,0,0.1,0,0.2c0.1,0.4,0.2,0.8,0.2,1.2
	c0.2,0.9,0.4,1.8,0.6,2.7c0.7,3,1.7,5.9,2.9,8.9c0.4,1,0.8,2,1.2,3c0,0,0,0,0,0.1c0.1,0.3,0.2,0.6,0.4,0.9c0,0,0,0,0,0
	c0.4,0.9,0.8,2,1.4,2.7c0.3,0.4,0.7,0.7,1.2,0.8c0.2,0.1,0.5,0.1,0.7,0c0.2,0,0.3-0.1,0.5-0.2c0.2-0.1,0.4-0.2,0.5-0.3
	c0.1-0.1,0.1-0.1,0.2-0.2c0.1-0.1,0.1-0.1,0.1-0.2c0.1-0.1,0.1-0.2,0.1-0.4c0-0.1,0-0.1,0-0.2c0-0.2,0.1-0.3,0.1-0.5c0,0,0,0,0,0
	c0-0.3,0-0.7,0-1c0-0.4,0-0.8,0-1.2c0,0,0,0,0,0c0-0.3,0-0.6,0.1-0.9c0.1-0.3,0.1-0.7,0.1-1.1c0-0.2,0-0.4,0-0.5c0-0.2,0-0.4,0-0.5
	c0-0.4,0.1-0.7,0.3-1.1c0.1-0.2,0.2-0.3,0.3-0.5c0.1-0.2,0.3-0.3,0.5-0.5v0c0.6,1.1,1.3,2.2,2,3.2c0.7,1,1.4,2.1,2.1,3.1
	c1.4,1.9,2.9,3.6,4.4,5.2c0.9,0.9,1.9,1.9,2.8,2.7c0,0,0,0,0,0c1,0.9,2,1.7,3,2.5c0,0,0,0,0.1,0c0.1,0,0.1,0.1,0.2,0.1
	c1.1,0.8,2.1,1.6,3.2,2.3c0,0,0.1,0,0.1,0c1.2,0.7,2.3,1.4,3.6,2.1c0.1,0,0.1,0.1,0.2,0.1c0.2,0.1,0.4,0.2,0.6,0.3c0,0,0,0,0,0
	c0.1,0,0.2,0.1,0.2,0.1c0.7,0.3,1.4,0.7,2.1,1c0.2,0.1,0.3,0.1,0.5,0.2c0,0,0,0,0,0c0.1,0.1,0.2,0.1,0.4,0.2c0,0,0.1,0,0.1,0
	c0.2,0.1,0.5,0.2,0.7,0.3c0.1,0,0.2,0.1,0.4,0.1c0.9,0.4,1.9,0.7,2.8,1.1c0.4,0.2,0.9,0.3,1.3,0.5c0.4,0.1,0.9,0.3,1.3,0.4
	c1,0.3,2.1,0.6,3.2,0.9c0,0,0,0,0,0c0,0,0,0,0,0c2.5,0.6,5.7,1.8,7.6,0.4c0.3-0.2,0.5-0.4,0.7-0.8c0.1-0.1,0.1-0.2,0.2-0.3
	c0-0.1,0-0.1,0-0.2c0-0.1,0-0.1,0-0.2c0-0.1,0-0.3,0-0.4c0-0.1,0-0.1,0-0.2c-0.1-0.2-0.2-0.4-0.3-0.6c-0.4-0.7-1.1-1.3-1.7-2
	c-0.4-0.5-0.9-1-1.2-1.4c-0.1-0.1-0.1-0.2-0.2-0.3c-0.1-0.1-0.1-0.2-0.2-0.2c-0.1-0.1-0.1-0.3-0.2-0.4c-0.1-0.3-0.1-0.7-0.2-1
	c0-0.1,0-0.2-0.1-0.3v0c0.5,0.1,1,0.1,1.5,0.2h0c3.4,0.2,6.8,0.2,10.1-0.1c1.7-0.1,3.3-0.3,5-0.6c0.7-0.1,1.3-0.2,2-0.4
	c0.2,0,0.3-0.1,0.5-0.1c0.4-0.1,0.8-0.2,1.2-0.3s0.8-0.2,1.2-0.3c0.6-0.1,1.1-0.3,1.7-0.5c0.6-0.2,1.1-0.3,1.7-0.5
	c1.1-0.4,2.2-0.8,3.3-1.3c0.5-0.2,1-0.4,1.5-0.7c1.5-0.7,2.9-1.5,4.2-2.3c0,0,0,0,0,0c0,0,0,0,0,0c0.6-0.4,1.2-0.8,1.9-1.2
	c0.1-0.1,0.3-0.2,0.4-0.3c0.2-0.2,0.5-0.3,0.7-0.5c0,0,0,0,0.1,0c0,0,0,0,0,0c0.3-0.2,0.6-0.5,0.9-0.7c0.6-0.5,1.2-1,1.8-1.5
	c0,0,0,0,0,0c0,0,0,0,0,0c0,0,0,0,0,0c0,0,0,0,0,0c0.4-0.3,0.8-0.7,1.1-1c0.2-0.2,0.4-0.5,0.6-0.8c0.2-0.4,0.3-0.9,0.2-1.4
	c-0.1-0.2-0.1-0.4-0.2-0.6c-0.1-0.1-0.1-0.2-0.2-0.3c0,0-0.1-0.1-0.1-0.1c-0.2-0.2-0.4-0.3-0.7-0.4c-0.4-0.1-0.8-0.2-1.2-0.3
	c-0.4-0.1-0.8-0.1-1.3-0.1c-0.2,0-0.4,0-0.6,0c-0.4,0-0.9,0.1-1.3-0.1c-0.2-0.1-0.4-0.3-0.6-0.6c3.9-3.2,7.3-6.7,9.8-10.7
	c1,3,2.3,6,3.6,9c0.5,1.1,1,2.1,1.9,4.1c0,0,2.2,2.8,5.3,6.5c-1.8,3.5-4,6.8-6.6,9.8c-1.1,1.3-2.3,2.6-3.6,3.8
	c-1.1,1.1-2.2,2.2-3.1,3.3c-1.4,1.7-2.6,3.5-3.6,5.3c-0.4,0.8-0.8,1.6-1.1,2.4c-0.4,0.9-0.7,1.9-1,2.9c-0.1,0.3-0.2,0.6-0.2,0.8
	c-0.5,1.9-0.8,3.8-0.9,5.7c0,0.8-0.1,1.7,0,2.5c0,0.8,0.1,1.7,0.2,2.5c0,0,0,0,0,0c0,0,0,0,0,0c0,0,0,0,0,0c0,0.2,0.1,0.5,0.1,0.7
	c0.1,0.6,0.2,1.2,0.3,1.8c0,0.2,0.1,0.5,0.1,0.7c0.2,0.8,0.3,1.7,0.5,2.5c0.3,1.3,0.6,2.6,1,3.8c0.3,1.3,0.7,2.5,1.1,3.8
	c1.7,5.7,3.9,11.2,6.7,16.4c0.9,1.7,1.9,3.4,2.9,5c1.6,2.6,3.6,4.8,5.8,6.8c1,0.9,1.9,1.6,2.9,2c0.5,0.2,1,0.4,1.5,0.6
	c0.3,0.1,0.6,0.2,0.9,0.2c0.3,0.1,0.6,0.1,1,0.1c0.3,0,0.7,0,1,0c0.1,0,0.1,0,0.2,0c0.2,0,0.4-0.1,0.6-0.1c0.1,0,0.2,0,0.3,0
	c0,0,0.1,0,0.1,0c0.1,0,0.2-0.1,0.4-0.1c0.2-0.1,0.4-0.1,0.7-0.2c0,0,0,0,0,0c0.1,0,0.2-0.1,0.3-0.1c0.3-0.1,0.5-0.2,0.8-0.3
	c0.2-0.1,0.4-0.2,0.6-0.3c0.1-0.1,0.2-0.1,0.3-0.2c-3.3,19.3-4.3,38.8-1.6,58.6c4,28.4,18.1,49.8,44,63c3.4,1.7,7,3.3,10.8,5
	l8.7,2.9c0.3,0.1,0.6,0.1,1,0.3c1.8,0.7,3.6,1.2,5.4,1.8c10.3,1.5,20,4.8,29.4,9c9.9,4.4,19.6,8.9,30.4,10.5
	c15.7,2.4,30.4-0.1,44.6-6.6c11.5-5.2,23-10,35.4-12.6c0.9-0.2,1.9-0.3,2.8-0.4c6.5-2.3,13.1-4.1,19.4-6.8
	c8.8-3.8,16.8-8.6,24.1-14.8c0.3-0.3,0.8-0.4,1.2-0.6c0.2-0.1,0.3-0.1,0.5-0.2c-0.1,0.2-0.1,0.3-0.2,0.5c0-0.1,15.7-18.5,22.3-37.5
	c7.7-32.9,3.7-65.1-4.4-97.4c4.3,1.8,7.8,3.4,11.6,4.3c4,0.9,7.9,1.2,12,1.4c18.4,0.7,45.4-23.3,49-35.8
	C492.8,240.1,492.8,234.4,489,229z"/>
<path class="st3" d="M26.9,179.1C26.9,179.1,26.9,179.2,26.9,179.1C26.9,179.1,26.9,179.1,26.9,179.1
	C26.9,179.1,26.9,179.1,26.9,179.1z"/>
<path class="st3" d="M403.7,132.2c0.4-1.1,0.8-2.1,1.3-3.1c1.6-3,3.8-5.8,6.9-8.3l0,0c1.2,1.9,2.4,3.8,3.8,5.6
	c1.3,1.8,2.7,3.6,4.2,5.3c4.8,5.7,10.2,10.8,15.9,15.7c9.5,8.2,12.3,24.3,7.3,38c-4,10.9-11,19.6-19.3,27.4
	c-0.8,0.7-1.6,1.5-2.4,2.2c-0.2,0.2-0.5,0.4-0.7,0.6c-0.9,0.7-1.7,1.5-2.5,2.1c0,0,0,0,0,0c0,0,0,0,0,0c0.2-1.5,0.3-3.1,0.5-4.6
	c0-0.5,0.1-0.9,0.1-1.4c0.1-1.3,0.2-2.6,0.3-3.9c0-0.3,0.1-0.7,0.1-1c0-0.5,0-1,0.1-1.6c0-0.1,0-0.1,0-0.2c0.1-2,0.1-4.1,0.1-6.1
	c0-2.1-0.1-4.2-0.2-6.4c0-0.5-0.1-1-0.1-1.5c-0.1-1-0.1-2.1-0.2-3.1c-0.1-0.8-0.2-1.6-0.2-2.4c-0.1-1.1-0.2-2.1-0.4-3.2
	c-0.1-0.6-0.2-1.3-0.3-1.9c-0.2-1.7-0.5-3.5-0.8-5.2c-0.1-0.8-0.3-1.5-0.5-2.2c-0.1-0.3-0.2-0.6-0.2-0.9c-0.1-0.4-0.2-0.7-0.3-1.1
	c0,0.1,0.1,0.2,0.1,0.2c0.1-0.7-0.2-1.4-0.7-2.1c0,0.1,0.1,0.2,0.1,0.3c0-0.1-0.1-0.2-0.1-0.3c0,0,0,0,0,0c0,0,0-0.1-0.1-0.1
	c-0.1-0.3-0.3-0.7-0.4-1c-0.1-0.2-0.2-0.4-0.3-0.6c-0.1-0.3-0.2-0.5-0.4-0.8c-0.3-0.5-0.5-0.9-0.8-1.4c-0.4-0.7-0.9-1.3-1.4-1.8
	c0,0-0.1-0.1-0.1-0.1c-0.2-0.3-0.5-0.5-0.7-0.8c-0.1-0.1-0.1-0.1-0.2-0.2c-0.2-0.2-0.5-0.4-0.8-0.6c-0.1-0.1-0.2-0.2-0.3-0.2
	c-0.1-0.1-0.3-0.2-0.4-0.3c-0.1-0.1-0.3-0.2-0.4-0.3c0,0,0,0-0.1,0c0,0,0,0,0,0c0,0-0.1-0.1-0.1-0.1c-0.3-0.5-0.6-1-0.8-1.5
	c-2.4-4-4.2-8.3-5-13.1C402,141.2,402.2,136.5,403.7,132.2z"/>
<path class="st3" d="M118.9,185.8c-0.1,0.9-0.3,1.7-0.5,2.6c0,0.2-0.1,0.4-0.1,0.6c-0.4,1.7-0.9,3.2-1.5,4.7
	c-0.1,0.2-0.2,0.4-0.2,0.6c-0.3,0.7-0.7,1.4-1,2.1c-0.6,1-1.2,2-1.8,3c-0.2,0.3-0.4,0.6-0.7,1c-0.7,0.9-1.4,1.8-2.1,2.6
	c-0.7,0.8-1.5,1.7-2.4,2.4c-0.5,0.5-1,1-1.6,1.5c-0.8,0.7-1.5,1.4-2.4,2c-1.6,1.3-3.4,2.6-5.1,3.8c0.3,0.7,0.6,1.1,1.1,1.5
	c0.7,0.5,1.4,0.8,2.2,1.1c0.8,0.3,1.5,0.7,2,1.3l0,0c0,0,0,0,0,0c-0.8,0.4-1.5,0.8-2.3,1.2c-0.2,0.1-0.3,0.2-0.5,0.2
	c-0.8,0.4-1.5,0.7-2.3,1c-0.1,0.1-0.3,0.1-0.4,0.1c-0.7,0.3-1.4,0.5-2.1,0.8c-0.1,0-0.3,0.1-0.4,0.1c-0.8,0.2-1.6,0.5-2.4,0.7
	c-0.2,0-0.3,0.1-0.5,0.1c-0.8,0.2-1.6,0.4-2.4,0.5c-0.8,0.2-1.7,0.3-2.5,0.4c-0.2,0-0.5,0.1-0.7,0.1c-0.6,0.1-1.2,0.2-1.9,0.2
	c-0.2,0-0.5,0.1-0.7,0.1c-0.8,0.1-1.7,0.1-2.5,0.2c-2.7,0.1-5.5,0.1-8.3,0c-0.7,0-1.4-0.1-2.1-0.1c-0.4,0-0.8,0-1.1,0
	c-0.5,0-1,0-1.4,0.1c-0.2,0-0.3,0.1-0.5,0.1c-0.3,0.1-0.5,0.2-0.6,0.4c0,0,0,0,0,0c-0.3,0.3-0.5,0.8-0.4,1.4c0,0.4,0.1,0.9,0.3,1.4
	c0.1,0.4,0.3,0.8,0.5,1.3c0,0,0,0.1,0.1,0.1v0c-0.5-0.2-0.9-0.5-1.4-0.7c-2.3-1.1-4.4-2.4-6.4-3.7c-0.8-0.5-1.6-1.1-2.4-1.6
	c-1.5-1.1-3-2.3-4.3-3.6c-2.1-1.9-3.9-3.9-5.7-6c-1.5-1.9-2.9-3.8-4.2-5.9c-2.1-3.4-3.9-7.1-5.4-11c-0.8,0.3-1.5,0.7-2,1.2
	c0,0,0,0,0,0c-0.8,0.7-1.3,1.5-1.8,2.5c-0.3,0.6-0.6,1.3-1,1.9c-0.2,0.4-0.4,0.7-0.6,1.1c-1-4.4-1.6-8.6-1.8-12.7c-0.1-2,0-4,0.1-6
	c0-0.1,0-0.3,0-0.4c0.1-1.9,0.4-3.8,0.7-5.7c0.4-2,0.8-3.9,1.4-5.8c1.7-5.7,4.3-11.3,7.7-16.8c0,0,0,0,0,0c-2.5-1.7-4.9,0.7-7.4-0.4
	h0c0.6-0.6,1.2-1.3,1.8-1.8c4.3-4.1,9.5-6.9,14.9-9.1c3.3-1.4,6.5-2.7,9.8-3.7c2-0.7,4-1.2,6-1.7c0.7-0.2,1.4-0.3,2-0.5
	c1.4-0.3,2.7-0.5,4.1-0.7c1.4-0.2,2.8-0.3,4.2-0.3c2.1-0.1,4.2,0,6.4,0.2c0.9,0.1,1.9,0.4,2.3-0.2c0.2-0.2,0.2-0.5,0.2-1
	c0-0.3-0.1-0.6-0.2-0.9c-0.2-0.6-0.1-1,0.2-1.1c0.3-0.2,0.9-0.1,1.6,0.3c7.2,3.5,13,8.7,17.9,15c0.5,0.6,0.7,1.2,0.8,1.6
	c0.1,1.3-1.4,1.9-2.4,2.6c-7,5.4-14,10.7-20.9,16c-0.9,0.7-1.9,1.2-2.7,2c-0.2,0.2-0.4,0.4-0.6,0.6c-0.4,0.4-0.9,0.7-1.3,1.1
	c-0.5,0.4-0.9,0.7-1.4,1.1c-0.5,0.4-0.9,0.8-1.3,1.1c-0.6,0.6-1.2,1.2-1.6,1.9c-0.3,0.5-0.6,1-0.8,1.6c-0.1,0.2-0.1,0.4-0.1,0.6
	c-0.2,0.8-0.1,1.6,0.1,2.6c1.4,5.2,7.1,6.3,11.9,7c4,0.6,8.1,0.7,12.1,0.5c4.1-0.2,8.1-0.7,12.3-1.2
	C113.3,186.6,116.1,186.2,118.9,185.8L118.9,185.8z"/>
<path class="st3" d="M122.4,172.1c-7.2,2.8-14.5,5.3-21.9,7.5c-4,1.2-8.2,0.9-12.3,0.6c-1.5-0.1-3.7,0.6-4.2-1.7
	c-0.4-1.7,1.3-2.5,2.5-3.4c5.5-4.3,11-8.7,16.5-12.9c12.3-9.5,23.2-20.5,35.2-30.4c16.3-13.4,30.1-29.5,46.7-42.6
	c10.2-8,20.4-16.2,32.3-21c14.3-5.8,29-4.5,43.2,2.4c34.8,16.8,63.9,40.8,89.6,69.4c4.4,4.9,8.3,10.3,14.2,14.6
	c-2,0.8-3.6,1.5-5.1,1.9c-0.6,0.2-1.8,0.1-2-0.3c-2.7-3.6-2.6-3.5-6.7-3.6c-16.5-0.2-32.8,0.9-48.5,6.4c-1.7,0.6-4,1.5-4.4-2.1
	c-0.3-2.6-3-1.8-4.7-1.7c-8.2,0.4-16.2,2.4-24,4.7c-20.2,5.9-39.7,13.7-58.4,23.6c-2.4,1.3-5,2.5-7.4,3.8c-2,1-4.1,3.8-4.9-1.3
	c-0.2-1.2-2.9-0.6-4.6,0c-2.9,1-5.7,2.3-8.4,3.6c-5.7-4-10.7-8.6-13.7-15.2c-1-2.3-1.2-4.1,0.5-6.5c3.6-5.2,5.3-11,5.1-17
	c0,0,0,0,0,0c0.4-0.3,0.7-0.6,1.1-0.9c0.2-0.2,0.4-0.3,0.5-0.5c0,0,0,0,0,0c0,0,0.1-0.1,0.1-0.1c0,0,0.1-0.1,0.1-0.1
	c0.2-0.2,0.4-0.3,0.6-0.5c0.4-0.3,0.7-0.7,1-1c0.1-0.1,0.2-0.2,0.3-0.3c0,0,0.1-0.1,0.1-0.1c6-6.1,15.4-16.5,21.1-22
	c0.4-0.4,0.8-0.8,1.2-1.2c8-7.5,17.8-12.5,26.7-18.9c1.6-1.2,3.5-2,4.6-4.5c-2.9-0.8-4.8,0.3-7.1,1.7c-13.7,8.6-26,18.8-37.2,30.4
	c-0.6,0.6-1.3,1.3-2,1.8c-0.2,0.2-0.7,0-1.4-0.1c0.7-3.5,2.4-6.4,4.2-9.2c2.6-4.2,5.2-8.4,7.6-12.7c0.6-1.1,1.8-2.6-0.2-3.7
	c-2.1-1.2-1.9,1-2.6,1.8c-5.7,7.3-10.5,15.4-15.9,22.8c-1.6,2.2-3.4,4.3-5.3,6.2c-1.5-3.4-3.6-6.7-6.3-9.8
	c-3.2,5.7-8.1,9.5-13.5,12.9c-3.9,2.5-8.1,4.6-12.4,6.4C131.5,154,125.2,161.8,122.4,172.1z"/>
<path class="st3" d="M126.8,192.1C126.8,192.1,126.8,192.1,126.8,192.1c-0.2-0.8-0.3-1.5-0.4-2.3c-1.1-7.3-0.6-14.1,2.2-20.2
	c1.8-4,4.5-7.7,8.3-11.1c1.8-1.6,3.8-2.8,6-3.7c9-3.7,17.4-8.4,24.6-15.1c1.6-0.4,1.5,1.1,1.8,1.9c0.4,0.8,0.7,1.7,1,2.5
	c1.8,5.1,1.9,10,0.4,14.5c-0.9,2.9-2.4,5.8-4.5,8.5c-0.4,0.6-0.9,1.1-1.3,1.7c-3.1,3.7-6.9,6.8-11,9.3c-0.3,0.2-0.7,0.4-0.9,0.6h0
	c-0.7,0.6-1.3,1.3-1.2,2.1v0c0,0.3,0.1,0.7,0.4,1.2c1.2,2,2.9,1.4,4.5,0.4c0.7-0.4,1.4-0.9,2-1.4c2.1-1.4,4.2-3,6.1-4.7
	c0.6-0.6,1.2-1.3,1.8,0.1c3.1,6.8,7.8,11.8,13.4,16c-2.1,1.2-4.1,2.4-6.1,3.6c-1.6,1-3.2,2-4.7,2.9c0,0-0.1,0.1-0.1,0.1
	c-4.2,2.6-8.2,5.3-12.3,8c-2.2,1.4-4.3,2.8-6.5,4.2l-10.8,8.7c-1.1-1.5-2.1-3.1-3.1-4.7c0,0,0,0,0,0
	C131.9,208.2,128.5,200.6,126.8,192.1z"/>
<path class="st3" d="M144.2,295c-0.9,0.5-1.8,0.9-2.5,1.1c-0.8,0.3-1.5,0.4-2.1,0.5c-1.3,0.1-2.5-0.2-3.6-0.9
	c-0.8-0.6-1.6-1.4-2.5-2.5c-0.4-0.6-0.9-1.2-1.3-1.9c-0.5-0.7-0.9-1.5-1.4-2.3c-0.7-1.2-1.4-2.3-2-3.5c-0.6-1.2-1.2-2.4-1.8-3.6
	c-3.4-7.2-5.8-14.8-6.8-22.9c-0.3-2.3-0.3-4.6-0.2-6.8c0.1-0.7,0.2-1.5,0.3-2.2c0.2-1,0.4-1.9,0.6-2.8c1.1-3.7,3-7.1,6.2-9.9
	c2.2-2,4.4-3.9,6.6-5.8c2.1-1.7,4.2-3.5,6.3-5.1l0,0c0.9-0.7,1.7-1.4,2.6-2c1.6-1.2,3.2-2.5,4.8-3.7c4.7-3.5,9.5-6.8,14.4-10
	c0.5-0.3,1-0.7,1.6-1c1.9-1.3,3.9-2.5,5.9-3.8c2-1.2,4-2.5,5.9-3.7c1.8-1.1,3.7-2.2,5.5-3.3c1.2-0.7,2.4-1.4,3.6-2.1v0
	c-0.3,0.7-0.5,1.5-0.8,2.2c-0.2,0.5-0.4,1.1-0.6,1.6c-0.4,1.1-0.8,2.2-1.2,3.3c-0.2,0.6-0.4,1.1-0.5,1.7c-0.4,1.3-0.7,2.7-0.9,4.2
	l0,0v0c1.9-1.2,3.9-2.3,5.8-3.5c3.9-2.3,7.8-4.6,11.7-6.9c1.2-0.7,2.3-1.3,3.5-2c0,0,0,0,0,0c4.7-2.7,9.4-5.3,14.2-7.9
	c5.9-3.2,11.9-6.2,18-9c6.1-2.8,12.3-5.4,18.6-7.8c4.2-1.6,8.5-3,12.8-4.4c4.3-1.3,8.7-2.5,13.1-3.6c0.1,0.8,0.3,1.3,0.1,1.5l0,0
	c-1,1.7-3.7,3.1-3.7,4.9c0,0.4,0.2,0.9,0.5,1.4c0.7,0.9,1.7,0.9,2.8,0.5c1.3-0.4,2.7-1.3,3.8-1.8c0.8-0.3,1.7-0.6,2.5-1
	c13.8-5.5,28.2-8.5,42.8-10.6c0.7-0.1,1.5-0.2,2.2-0.3c1.9-0.3,3.9-0.5,5.8-0.8c0.4,0,0.8-0.1,1.1-0.1c0,0,0.1,0,0.1,0
	c1.3,0,2.6,0.1,4.2,0.1c-0.2,0.4-0.5,0.8-0.8,1.2c-0.4,0.6-0.9,1.1-1.5,1.6c-0.6,0.5-1.2,1.1-1.7,1.6c-0.8,0.9-1.5,1.8-2,3.1
	c7.1-0.9,13.6-1.9,20.2-2.6c10-0.9,20-1.3,30-0.9c4.6,0.2,9.2,0.5,13.7,1.1c1.4,0.2,2.7,0.5,3.8,1c2.8,1.1,4.9,3,6.2,5.6
	c0.6,1.2,1.1,2.6,1.3,4.1c0.9,4.9,1.5,9.8,1.8,14.7c0.2,2.4,0.3,4.9,0.3,7.3c0,2.4,0,4.9-0.1,7.3c-0.1,3.7-0.4,7.3-0.8,11
	c-0.3,2.4-0.6,4.9-0.9,7.3c-0.4,2.4-0.8,4.9-1.2,7.3c-0.2,1.2-0.5,2.4-0.7,3.6c-0.3,1.7-0.9,2.9-1.7,3.8c-0.3,0.4-0.7,0.7-1.1,0.9
	c-0.8,0.5-1.8,0.7-2.9,0.7c-0.1,0-0.1,0-0.2,0c-0.6,0-1.3-0.1-2-0.2c-26.4-3.9-53-4.3-79.7-2.4c-22.9,1.6-45.2,6.2-67.4,11.9
	c-7.9,2-15.7,4.3-23.5,6.5c-0.9,0.3-1.7,0.8-2.6-0.7c0.8-0.4,1.6-0.8,2.4-1.2c9-4.4,18.1-8.3,27.5-11.5c8.4-2.9,16.8-5.8,25.2-8.6
	c8.4-2.8,16.9-5.5,25.4-7.8c4.9-1.4,9.8-1.2,14.5-1.9c0.7-0.1,1.4-0.2,2.1-0.4c0.7-0.1,1.4-0.3,2.1-0.5c0.5-0.1,1-0.3,1.5-0.4
	c0.6-0.2,1.2-0.4,1.6-0.7c0.2-0.2,0.5-0.4,0.6-0.6c0.1-0.2,0.2-0.4,0.2-0.6c0-0.2,0-0.4,0-0.7c-0.1-0.6-0.4-1-0.9-1.2
	c-0.9-0.4-2.4-0.2-3.4-0.1c-2.9,0.3-5.7,0.8-8.5,1.4c-3.4,0.7-6.8,1.7-10.2,2.6c-8,2.3-15.9,4.6-23.8,7.2
	c-7.9,2.5-15.7,5.2-23.4,8.1c-15.5,5.7-30.7,12.2-45.6,19.7c-5.7,2.9-11.4,5.8-17,8.8c-5.7,3-11.3,6-16.9,9.1
	c-11.2,6.2-22.3,12.6-33.2,19.2C146.2,294,145.1,294.6,144.2,295z"/>
<path class="st3" d="M420.6,328.8c1,14.6,0,28.9-3.8,43c-5.4,20.1-17.6,34.9-35.8,44.9c-10.5,5.7-21.7,9.3-33.4,11.9
	c-10.8,2.4-21.1,6.5-31,11.3c-11.3,5.5-23.2,8.3-35.8,7.7c-9.8-0.5-19.2-2.7-28-7.2c-14-7-29-10.9-44-15
	c-16.5-4.5-31.3-12.3-42.8-25.6c-9.3-10.7-14.3-23.4-16.8-37.2c-2.6-14.4-2.3-29-1-43.6c0.7-7.4,1.7-14.6,3.1-21.8
	c1.4-0.8,2.7-1.7,4.1-2.5c1.8-1.1,3.7-2.1,5.6-3.2c0,0,0.1,0,0.1-0.1c0,0,0,0,0.1,0c0.1,0,0.2-0.1,0.2-0.1c2-1.1,4-2.2,6-3.2
	c6.9-3.5,13.9-6.8,21-9.9c1-0.5,2.1-0.9,3.1-1.4c5-2.2,10.1-4.4,15.1-6.5c0,0,0,0,0.1,0c0,0,0.1,0,0.1,0c2.2-0.9,4.4-1.9,6.6-2.8
	c0.3-0.1,0.5-0.2,0.8-0.3c0.5-0.2,1-0.4,1.6-0.6c1.4-0.6,2.8-1.1,4.2-1.7c0.8-0.3,1.7-0.6,2.5-1c2.1-0.8,4.2-1.6,6.3-2.4
	c0.1,0,0.2-0.1,0.3-0.1c2.2-0.8,4.4-1.5,6.6-2.3c0.7-0.2,1.3-0.5,2-0.7c2.2-0.7,4.4-1.5,6.6-2.2c2.3-0.7,4.5-1.4,6.8-2.1
	c0,0,0.1,0,0.1,0c2.7-0.8,5.4-1.5,8.1-2.3c0.8-0.2,1.6-0.4,2.4-0.6c2-0.5,4-1,6-1.5c0.8-0.2,1.6-0.4,2.5-0.6
	c2.7-0.6,5.4-1.3,8.2-1.8c3.1-0.6,6.2-1.2,9.3-1.8c2.9-0.5,5.8-1,8.7-1.4c1-0.1,1.9-0.3,2.9-0.4c1.4-0.2,2.7-0.4,4.1-0.6
	c0,0,0,0,0.1,0c0.6-0.1,1.2-0.1,1.7-0.2c1.1-0.1,2.3-0.3,3.4-0.4c0.1,0,0.2,0,0.4,0c0.7-0.1,1.5-0.2,2.2-0.3c1-0.1,1.9-0.2,2.9-0.3
	c0.8-0.1,1.6-0.1,2.4-0.2c0.4,0,0.8-0.1,1.2-0.1c0.4,0,0.9-0.1,1.3-0.1c1.3-0.1,2.7-0.2,4.1-0.3c1.2-0.1,2.4-0.2,3.6-0.2
	c1.1-0.1,2.2-0.1,3.3-0.2c0.7,0,1.4,0,2-0.1c0,0,0.1,0,0.1,0c1.2,0,2.3-0.1,3.5-0.1c0.7,0,1.5,0,2.2-0.1c0,0,0,0,0,0
	c0.1,0,0.1,0,0.2,0c1.2,0,2.4,0,3.5,0c0.4,0,0.7,0,1.1,0c0.6,0,1.3,0,1.9,0c0.4,0,0.7,0,1.1,0c0,0,0,0,0,0c2,0,4.1,0.1,6.2,0.1
	c0.5,0,1.1,0,1.6,0c0,0,0,0,0,0c0,0,0,0,0,0c0,0,0.1,0,0.1,0c0,0,0,0,0,0c2.8,0.1,5.5,0.2,8.3,0.3c0.5,0,1.1,0.1,1.6,0.1
	c12.9,0.7,25.8,2,38.6,3.9l0,0c0,0,0,0,0,0c0,0,0.1,0,0.1,0c6.3,16.2,10.6,33.1,14.3,50.1C418.9,306.4,419.9,317.6,420.6,328.8z"/>
<path class="st3" d="M486,241.4c-0.3,2-0.9,4-2,6c-4,7.2-10,12.6-16.4,17.5c-5.4,4.2-11,8.2-17.8,10c-11.9,3-22.7,0.2-32.6-6.5
	c-1-0.6-1.3-1.6-1.7-2.7c-0.4-1.3-0.8-2.6-1.2-3.9c-0.4-1.3-0.7-2.6-1.1-3.9c-0.2-0.4-0.4-0.8-0.6-1.2c-0.2-0.4-0.3-0.8-0.5-1.2
	c-0.3-0.8-0.4-1.7-0.5-2.6c0,0,0,0,0,0c-1-2.5-2-5-3-7.5c0,0,0,0,0,0c0,0,0,0,0,0c0.1,0,0.2,0,0.2-0.1c0.1,0,0.2-0.1,0.4-0.1
	c0.3-0.1,0.5-0.2,0.7-0.3c0.2-0.1,0.4-0.2,0.6-0.3c0.1-0.1,0.3-0.2,0.4-0.3c0.2-0.1,0.3-0.2,0.5-0.4c0,0,0,0,0,0
	c0.2-0.2,0.4-0.5,0.7-0.7c0.1-0.2,0.2-0.3,0.3-0.5c0.1-0.1,0.2-0.3,0.2-0.4c0.1-0.1,0.1-0.2,0.2-0.3c0,0,0,0,0,0
	c0.1-0.1,0.2-0.3,0.2-0.4c0-0.1,0.1-0.2,0.1-0.3c0.1-0.2,0.2-0.4,0.3-0.7c0-0.1,0.1-0.2,0.2-0.4c0-0.1,0.1-0.2,0.1-0.3
	c0.2-0.5,0.4-1.1,0.5-1.7c0,0,0,0,0,0c0.4-1.7,0.8-3.4,1.2-5.1c0.1-0.3,0.1-0.7,0.2-1c0.4-1.7,0.7-3.4,1-5.1c0,0,0,0,0,0
	c2.3-1.3,4.6-2.5,7-3.6c4.2-1.8,8.6-3.2,13.4-3.6c4.6-0.4,9.1,0.1,13.2,1.8c2.8,1.1,5.5,2.2,8.3,3.3c2.1,0.8,4.1,1.6,6.2,2.3
	c6.3,2.3,12.6,4.2,19.1,5.7c1.1,1.3,1.8,2.9,2.1,4.7c0.1,0.6,0.1,1.2,0.1,1.9C486.1,240.1,486.1,240.7,486,241.4z"/>
<path class="st3" d="M345.8,346.8c3.1-12.3-1-23-11.3-30.2c-11.3-8-23.2-8-35.4-2.5c-10.1,4.5-19.9,4.5-29.9,0
	c-6.4-2.9-13-4.2-20.1-3.5c-14.5,1.5-32.5,15.9-26.5,36.3c1,3.3,0.7,6.4-0.4,9.7c-2.7,7.7-2.4,15.2,1.9,22.3
	c1.9,3.1,4.2,5.7,6.9,8.1c7.9,7.2,13.4,15.8,16.4,26.2c4.9,17.1,17.6,27.4,36.5,26.7c18.9,0.8,31.4-9.3,36.1-24.7
	c3.6-11.8,9.7-21.5,18.7-29.7c8.7-8.1,11.2-18,7.1-29.2C344.8,352.9,344.9,350,345.8,346.8z"/>
<path class="st3" d="M314.2,414c-1.7,4.6-3.7,9.2-8.1,12.1c-3.6,4.5-8.7,6.4-14.1,7.2c-8.8,1.3-17.4,1.2-25.5-3.4
	c-0.4-0.2-0.7-0.4-1.1-0.6c-0.7-0.4-1.4-0.9-2-1.5c-0.3-0.3-0.6-0.6-0.8-0.9c-0.6-0.4-1.1-0.8-1.6-1.3c-1.5-1.4-2.7-2.9-3.8-4.6
	c-1.4-2.2-2.5-4.7-3.4-7.2c-1.4-3.8-2.6-7.6-4.1-11.4c-1.4-3.7-3.6-6.9-6.2-10.5c4.3-0.1,7.5,1.4,10.6,3.3
	c4.5,2.9,7.9,6.8,10.2,11.6c2.5,5.1,5.7,9.5,10.3,12.8c2.2,1.1,4.3,1.8,6.5,2.1c0.7,0.1,1.5,0.2,2.2,0.2c0.7,0,1.5,0,2.2,0
	c0.9-0.1,1.8-0.2,2.7-0.4c1.3-0.3,2.6-0.8,3.9-1.4c1.5-0.9,2.9-2,4.2-3.2c0.1,0,0.1-0.1,0.2-0.1c0.6-0.6,1.3-1.3,1.8-1.9
	c0.6-0.7,1.1-1.4,1.6-2.1c1.2-1.7,2.3-3.6,3.4-5.6c3.7-7.4,9.2-12.9,17.5-15c0.7-0.2,1.4-0.3,2.1-0.4c0.3,0,0.7,0.1,1.4,0.2
	C319.1,398.7,317,406.4,314.2,414z"/>
<path class="st3" d="M283.2,382.6c-12.9-0.2-22.6-5.9-28.1-17.8c-2.5-5.4-4.3-11-4.1-17.1c1.2-2.3,3.4-2.8,5.7-2.8
	c2.5,0,4.3,0.7,4.9,3.8c2.1,10.9,8.2,18.7,18.6,23c2.6,1.1,4.9,1.1,7.5,0.1c10-4.1,16-11.4,18.6-21.8c1.3-5.4,4-6.5,9.2-3.7
	c1.6,0.4,2,1.3,1.8,2.9c-0.8,5.7-2,11.2-4.6,16.4C306.7,377.7,296.5,382.8,283.2,382.6z"/>
<path class="st3" d="M296.1,404.9c-0.1,5.1-6.4,10.6-12.1,10.5c-5.8-0.1-11.9-5.7-11.8-10.8c0.1-4.3,6.1-8.7,11.9-8.7
	C290.1,395.9,296.2,400.4,296.1,404.9z"/>
<path class="st3" d="M335.8,380.2c-3.7,4.2-7.7,6.4-13.5,6.2c-6.9-0.3-13.8,0.3-21.1-1c3.2-2.2,6.1-4.2,9-6.3
	c5.5-5.8,9.3-12.5,11.2-20.3c1,0.4,0.7,1.4,1,2.1c0.7,1.3,1.8,2,3.2,1.7c1.4-0.3,2.1-1.4,2.4-2.8c1.1-5.8-3.5-15.1-9.2-18.6
	c-5.5-3.4-11.6-2.9-17.5,1.6c-2.6,1.9-4.8,4.3-6.7,6.8c-1,1.3-1.9,2.5-1.3,4.2c0.7,2,2.5,1.9,4.4,1.9c-2.9,5.2-7,8.5-12.2,10.6
	c-1.2,0.5-2.3,0.3-3.4-0.2c-4.9-2.1-8.9-5.3-11.6-10.1c4.9-0.8,5.7-2.7,2.9-6.5c-1.9-2.6-4.2-4.9-6.8-6.8c-8.8-6.5-18.9-4.1-24,5.6
	c-1.5,2.9-2.2,6-2.6,9.2c-0.2,2.3-0.3,4.6,2.5,5.1c2.7,0.5,3.2-1.8,3.9-4.4c0.5,2.1,1.2,4.1,1.9,6c0.7,1.9,1.6,3.7,2.5,5.5
	c0.7,1.4,1.5,2.7,2.4,3.9c0.9,1.3,1.8,2.5,2.8,3.7c0.6,0.7,1.1,1.3,1.7,2c0.7,0.5,1.4,1,2.2,1.5c2.2,1.5,4.4,3.1,7,4.8
	c-9.7,1.5-18.8,1.4-28,0.3c-2.7-0.3-3.9-2.9-5.7-4.6c-6.5-6.2-8.9-13.6-5.7-22.3c1.7-4.6,1.6-9.1,0.4-13.9
	c-1.8-7.4-0.8-14.4,5.3-19.9c8.3-8.8,20.3-11.3,32-5.9c12.6,5.8,24.8,5.8,37.4,0c7.3-3.4,14.7-3.7,21.2-1.3c0.5,0.2,1,0.4,1.5,0.6
	c3.4,1.5,6.5,3.7,9.3,6.6c0.2,0.3,0.4,0.5,0.6,0.8c0,0,0,0,0,0c0.4,0.3,0.7,0.7,1,1c0.9,1.1,1.7,2.2,2.4,3.3
	c0.4,0.8,0.8,1.5,1.1,2.3c0.3,0.8,0.5,1.6,0.7,2.4c0.7,3.3,0.4,6.7-0.5,10.3c-1.3,4.8-1.2,9.3,0.5,13.9
	C343.5,367,341.4,373.9,335.8,380.2z"/>
<path class="st3" d="M362.1,294.1c-11.3-0.1-20.1,8.5-20.2,19.5c-0.1,11.5,8.7,20.5,20.1,20.5c11,0,19.9-8.8,20-19.9
	C382,302.8,373.5,294.2,362.1,294.1z"/>
<path class="st3" d="M353.1,326.9c-1.7-0.4-2.8-1.3-2.6-2.9c0.2-1.6,1.3-2.6,2.9-2.4c1.4,0.2,2.3,1.1,2.3,2.7
	C355.7,325.9,354.5,326.6,353.1,326.9z"/>
<path class="st3" d="M353.7,316.1c-3.8-0.1-6.9-3.3-6.9-7.2c0-3.9,3.2-6.9,7.1-6.9c3.8,0,7,3.3,6.9,7.1
	C360.8,312.9,357.5,316.2,353.7,316.1z"/>
<path class="st3" d="M206.7,294.1c-11.6,0-20.3,8.4-20.4,19.7c-0.1,11.3,8.7,20.3,19.8,20.4c11.2,0,20.2-8.8,20.2-20
	C226.4,303,217.8,294.2,206.7,294.1z"/>
<path class="st3" d="M217.7,324.4c-0.2,1.6-1.3,2.6-2.9,2.4c-1.4-0.2-2.3-1.1-2.2-2.7c0.1-1.7,1.2-2.4,2.7-2.6
	C216.8,321.9,217.9,322.7,217.7,324.4z"/>
<path class="st3" d="M214.3,316.1c-3.8-0.1-6.9-3.4-6.8-7.2c0.1-3.9,3.2-6.9,7.1-6.8c3.9,0.1,6.9,3.2,6.8,7.1
	C221.3,313.1,218.1,316.3,214.3,316.1z"/>
<path class="st4" d="M433.4,245.5c-3.9,0.5-7.6,1.5-11.2,2.8c-3.6,1.3-7.1,2.9-10.6,4.6l0,0c0,0,0,0,0,0c0.1,0.9,0.2,1.8,0.5,2.6
	c0.1,0.4,0.3,0.8,0.5,1.2c0.2,0.4,0.4,0.8,0.6,1.2c7.5,3.5,15.3,5.7,23.7,5c8.9-0.8,16.7-4,23.4-10
	C452.5,246.1,443.5,244.1,433.4,245.5z"/>
<path class="st4" d="M203,360.6c-6.2-7.2-15.8-12.9-25.6-12.3c-0.6,0-1.1,0.1-1.7,0.2c-1.7,0.2-3.4,0.7-5,1.4h0
	c-8.2,5.3-11.1,12.7-8.9,22.3c4.1,17.7,17.8,28.2,36.6,28.3c9.1-2.8,14.6-10,12.9-22.2C210.4,371.6,207.4,365.7,203,360.6z"/>
<path class="st4" d="M397.5,349.9c-6.3-2.3-12.5-2-18.6,0.7c-8.6,3.8-14.8,10.1-19,18.3c-2.4,4.7-3.6,9.8-3.3,15.1
	c0.1,2.1,0.5,4.1,1.1,5.8c0.3,0.9,0.7,1.7,1.1,2.5c0.4,0.8,0.9,1.5,1.5,2.2c0.6,0.7,1.2,1.3,1.9,1.9c1,0.9,2.2,1.7,3.4,2.4
	c1.3,0.7,2.6,1.3,4.1,1.8c3.5-0.2,7.1,0.5,10.6-0.6c13.3-4.1,22-13,25.7-26.3C408.5,365,407.1,355.2,397.5,349.9z"/>
<path class="st4" d="M340.1,345c1-3.5,1.2-7,0.5-10.3c-0.2-0.8-0.4-1.6-0.7-2.4c-0.3-0.8-0.7-1.6-1.1-2.3c-0.6-1.1-1.4-2.2-2.4-3.3
	c-0.3-0.4-0.6-0.7-1-1c0,0,0,0,0,0c-0.2-0.3-0.4-0.5-0.6-0.8c-1.4-1.4-2.9-2.7-4.4-3.8c-0.4-0.3-0.8-0.5-1.2-0.8
	c-0.8-0.5-1.6-1-2.4-1.4c-0.4-0.2-0.8-0.4-1.3-0.6c-0.5-0.2-1-0.4-1.5-0.6c-6.6-2.4-13.9-2.1-21.2,1.3c-12.6,5.8-24.8,5.8-37.4,0
	c-11.6-5.4-23.6-2.9-32,5.9c-6.1,5.5-7.1,12.5-5.3,19.9c1.2,4.8,1.3,9.3-0.4,13.9c-3.2,8.7-0.8,16.1,5.7,22.3c1.7,1.7,3,4.3,5.7,4.6
	c9.2,1.1,18.3,1.2,28-0.3c-2.5-1.8-4.8-3.3-7-4.8c-0.7-0.5-1.4-1-2.2-1.5c-0.6-0.6-1.2-1.3-1.7-2c-1-1.2-1.9-2.4-2.8-3.7
	c-0.9-1.3-1.7-2.6-2.4-3.9c-0.9-1.7-1.8-3.6-2.5-5.5c-0.7-1.9-1.4-3.9-1.9-6c-0.7,2.6-1.2,4.9-3.9,4.4c-2.8-0.5-2.7-2.8-2.5-5.1
	c0.3-3.2,1.1-6.3,2.6-9.2c5.1-9.7,15.1-12.1,24-5.6c2.6,1.9,4.8,4.2,6.8,6.8c2.8,3.8,2,5.7-2.9,6.5c2.7,4.8,6.7,8,11.6,10.1
	c1.1,0.5,2.3,0.7,3.4,0.2c5.2-2.1,9.4-5.4,12.2-10.6c-1.9,0-3.7,0.1-4.4-1.9c-0.6-1.7,0.3-2.9,1.3-4.2c2-2.5,4.1-4.9,6.7-6.8
	c6-4.5,12-5,17.5-1.6c5.7,3.5,10.2,12.8,9.2,18.6c-0.3,1.4-1,2.5-2.4,2.8c-1.4,0.3-2.5-0.4-3.2-1.7c-0.4-0.7,0-1.7-1-2.1
	c-1.9,7.8-5.7,14.5-11.2,20.3c-2.9,2-5.8,4-9,6.3c7.3,1.4,14.2,0.7,21.1,1c5.8,0.2,9.8-2,13.5-6.2c5.6-6.3,7.8-13.2,4.8-21.3
	C338.8,354.3,338.8,349.8,340.1,345z"/>
<path class="st4" d="M268.1,329.1c-0.9,2.1-2.8,2.1-4.2,1.2c-6.3-3.6-12.4-3.2-18.7,0c-1.5,0.7-3.3,0.9-4.3-1.1
	c-0.9-1.9,0-3.1,1.7-4c3.8-2.1,7.8-3.4,12.2-3.2c4.1-0.4,7.9,1.1,11.5,3C268,325.9,269,327.2,268.1,329.1z"/>
<path class="st4" d="M327.2,331.5c-1.1,2-2.8,1.6-4.3,0.6c-6.3-4.1-12.8-3.5-19.4-1.2c-0.7,0.2-1.3,0.5-2,0.7
	c-1.6,0.6-3.5,1.1-4.3-1c-0.9-2.1,0.3-3.7,2.3-4.5c4.2-1.7,8.5-3.1,13.1-2.7c4.9-0.4,9.4,0.9,13.4,3.7
	C327.4,328.3,328.2,329.7,327.2,331.5z"/>
<path class="st4" d="M284,415.4c5.7,0.1,12-5.4,12.1-10.5c0.1-4.5-6-9-12-9c-5.8,0-11.8,4.4-11.9,8.7
	C272.1,409.7,278.2,415.3,284,415.4z"/>
<path class="st4" d="M323.2,392c-0.7,0.1-1.4,0.2-2.1,0.4c-8.3,2.1-13.8,7.6-17.5,15c-1,2-2.1,3.9-3.4,5.6c-0.5,0.7-1.1,1.4-1.6,2.1
	c-0.6,0.7-1.2,1.3-1.8,1.9c-0.1,0-0.1,0.1-0.2,0.1c-1.2,1.2-2.6,2.3-4.2,3.2c-1.3,0.6-2.6,1.1-3.9,1.4c-0.9,0.2-1.8,0.4-2.7,0.4
	c-0.7,0.1-1.5,0.1-2.2,0c-0.7,0-1.5-0.1-2.2-0.2c-2.2-0.3-4.4-1.1-6.5-2.1c-4.6-3.3-7.8-7.7-10.3-12.8c-2.3-4.8-5.7-8.7-10.2-11.6
	c-3.1-1.9-6.3-3.4-10.6-3.3c2.6,3.6,4.8,6.8,6.2,10.5c1.4,3.8,2.7,7.6,4.1,11.4c0.9,2.5,2,5,3.4,7.2c1,1.7,2.3,3.2,3.8,4.6
	c0.5,0.5,1,0.9,1.6,1.3l0,0c0.3,0.3,0.5,0.6,0.8,0.9c0.6,0.6,1.3,1,2,1.5c0.4,0.2,0.7,0.4,1.1,0.6c8,4.6,16.7,4.8,25.5,3.4
	c5.4-0.8,10.5-2.7,14.1-7.2c4.4-2.9,6.4-7.5,8.1-12.1c2.7-7.6,4.9-15.4,10.4-21.9C323.8,392,323.5,391.9,323.2,392z"/>
<path class="st4" d="M206.7,96.7c8.6-2.4,17.7-4,27.1-4c22.7,0,68,40,68,40s-2.3,7.7,5.5,6.4c7.8-1.3,29.3-2.3,29.3-2.3
	c-26.6-30.9-78.8-67.3-104.7-66.7C206,70.6,158,120.8,158,120.8s17.9-13.8,42.2-22.1L206.7,96.7z"/>
<path class="st4" d="M204.4,167.1c0,0-11.3,4.1-23.3-13.6c0,0,2.2,6-4.2,17.7c0,0,1.9,8.3,9.1,13.4c0,0,17.7-10.7,16.4-4.7
	L204.4,167.1z"/>
</svg>
